<svg width="139" height="17" viewBox="0 0 139 17" fill="none" xmlns="http://www.w3.org/2000/svg">
<path d="M0.88275 13V1.432H4.03475C5.17608 1.432 6.14675 1.608 6.94675 1.96C7.75742 2.312 8.40808 2.776 8.89875 3.352C9.38942 3.928 9.74675 4.568 9.97075 5.272C10.2054 5.96533 10.3228 6.65867 10.3228 7.352C10.3228 8.22667 10.1681 9.01067 9.85875 9.704C9.56008 10.3973 9.14408 10.9893 8.61075 11.48C8.07742 11.9707 7.46408 12.3493 6.77075 12.616C6.08808 12.872 5.36275 13 4.59475 13H0.88275ZM2.43475 11.512H4.29075C4.93075 11.512 5.51742 11.416 6.05075 11.224C6.59475 11.032 7.06408 10.7547 7.45875 10.392C7.86408 10.0293 8.17875 9.58667 8.40275 9.064C8.62675 8.53067 8.73875 7.928 8.73875 7.256C8.73875 6.54133 8.62142 5.91733 8.38675 5.384C8.15208 4.84 7.83208 4.38667 7.42675 4.024C7.02142 3.66133 6.56275 3.38933 6.05075 3.208C5.53875 3.016 5.00008 2.92 4.43475 2.92H2.43475V11.512ZM15.6336 13.16C14.8763 13.16 14.2256 13.0107 13.6816 12.712C13.1376 12.4027 12.7163 11.9867 12.4176 11.464C12.1296 10.9307 11.9856 10.3227 11.9856 9.64C11.9856 8.98933 12.151 8.39733 12.4816 7.864C12.8123 7.33067 13.255 6.904 13.8096 6.584C14.3643 6.264 14.983 6.104 15.6656 6.104C16.5403 6.104 17.2656 6.36 17.8416 6.872C18.4176 7.384 18.807 8.088 19.0096 8.984L13.5536 10.904L13.2016 10.024L17.6816 8.392L17.3616 8.6C17.2336 8.248 17.0203 7.944 16.7216 7.688C16.423 7.42133 16.0336 7.288 15.5536 7.288C15.1483 7.288 14.7856 7.38933 14.4656 7.592C14.1456 7.784 13.895 8.05067 13.7136 8.392C13.5323 8.73333 13.4416 9.12267 13.4416 9.56C13.4416 10.0187 13.5376 10.424 13.7296 10.776C13.9216 11.1173 14.183 11.3893 14.5136 11.592C14.855 11.784 15.239 11.88 15.6656 11.88C15.9536 11.88 16.231 11.8267 16.4976 11.72C16.775 11.6133 17.031 11.4747 17.2656 11.304L17.9536 12.408C17.623 12.632 17.2496 12.8133 16.8336 12.952C16.4283 13.0907 16.0283 13.16 15.6336 13.16ZM22.7301 13.128C22.2608 13.128 21.8021 13.048 21.3541 12.888C20.9168 12.7173 20.5541 12.4667 20.2661 12.136L20.8901 11.272C21.1675 11.5387 21.4501 11.7413 21.7381 11.88C22.0368 12.008 22.3301 12.072 22.6181 12.072C22.8315 12.072 23.0288 12.0453 23.2101 11.992C23.3915 11.9387 23.5355 11.8533 23.6421 11.736C23.7595 11.608 23.8181 11.4373 23.8181 11.224C23.8181 10.9893 23.7381 10.8027 23.5781 10.664C23.4288 10.5253 23.2315 10.4133 22.9861 10.328C22.7515 10.2427 22.5008 10.1627 22.2341 10.088C21.6901 9.90667 21.2741 9.656 20.9861 9.336C20.6981 9.016 20.5541 8.62667 20.5541 8.168C20.5541 7.816 20.6395 7.49067 20.8101 7.192C20.9915 6.88267 21.2528 6.632 21.5941 6.44C21.9461 6.248 22.3781 6.152 22.8901 6.152C23.3488 6.152 23.7595 6.21067 24.1221 6.328C24.4848 6.43467 24.8261 6.616 25.1461 6.872L24.5541 7.8C24.3621 7.59733 24.1328 7.448 23.8661 7.352C23.5995 7.256 23.3595 7.20267 23.1461 7.192C22.9648 7.18133 22.7888 7.208 22.6181 7.272C22.4581 7.336 22.3248 7.42667 22.2181 7.544C22.1115 7.66133 22.0581 7.8 22.0581 7.96C22.0581 8.184 22.1328 8.36533 22.2821 8.504C22.4315 8.64267 22.6235 8.75467 22.8581 8.84C23.1035 8.91467 23.3435 8.99467 23.5781 9.08C23.9088 9.176 24.2021 9.304 24.4581 9.464C24.7141 9.624 24.9168 9.82133 25.0661 10.056C25.2261 10.2907 25.3061 10.584 25.3061 10.936C25.3061 11.3307 25.2101 11.6987 25.0181 12.04C24.8368 12.3707 24.5541 12.6373 24.1701 12.84C23.7968 13.032 23.3168 13.128 22.7301 13.128ZM27.3898 6.376H28.8778V13H27.3898V6.376ZM27.2778 3.976C27.2778 3.74133 27.3684 3.544 27.5498 3.384C27.7418 3.224 27.9498 3.144 28.1738 3.144C28.3978 3.144 28.5951 3.224 28.7658 3.384C28.9471 3.544 29.0378 3.74133 29.0378 3.976C29.0378 4.22133 28.9471 4.424 28.7658 4.584C28.5951 4.73333 28.3978 4.808 28.1738 4.808C27.9498 4.808 27.7418 4.728 27.5498 4.568C27.3684 4.408 27.2778 4.21067 27.2778 3.976ZM34.6363 16.28C34.1456 16.28 33.7136 16.2213 33.3403 16.104C32.9669 15.9973 32.6256 15.8427 32.3163 15.64C32.0176 15.4373 31.7296 15.208 31.4523 14.952L32.3163 13.944C32.6683 14.2747 33.0256 14.5307 33.3883 14.712C33.7509 14.8933 34.1563 14.984 34.6043 14.984C35.1056 14.984 35.5269 14.8987 35.8683 14.728C36.2203 14.568 36.4869 14.3387 36.6683 14.04C36.8496 13.752 36.9403 13.416 36.9403 13.032L36.9563 11.24L37.0843 11.528C36.8923 11.9867 36.5456 12.376 36.0443 12.696C35.5429 13.0053 34.9349 13.16 34.2203 13.16C33.6123 13.16 33.0523 13.0053 32.5403 12.696C32.0389 12.3867 31.6336 11.9707 31.3243 11.448C31.0256 10.9147 30.8763 10.3173 30.8763 9.656C30.8763 8.96267 31.0363 8.35467 31.3563 7.832C31.6763 7.29867 32.0976 6.87733 32.6203 6.568C33.1429 6.25867 33.7136 6.104 34.3323 6.104C34.9189 6.104 35.4523 6.22667 35.9323 6.472C36.4229 6.70667 36.7803 7.01067 37.0043 7.384L36.9243 7.656L37.0843 6.376H38.4443V13.048C38.4443 13.6453 38.2896 14.1893 37.9803 14.68C37.6709 15.1707 37.2336 15.56 36.6683 15.848C36.1029 16.136 35.4256 16.28 34.6363 16.28ZM32.3643 9.624C32.3643 10.0507 32.4656 10.44 32.6683 10.792C32.8709 11.144 33.1429 11.4213 33.4843 11.624C33.8363 11.8267 34.2256 11.928 34.6523 11.928C35.0469 11.928 35.3989 11.8587 35.7083 11.72C36.0283 11.5707 36.2949 11.3733 36.5083 11.128C36.7216 10.872 36.8709 10.5787 36.9563 10.248V8.936C36.8603 8.616 36.7003 8.33867 36.4763 8.104C36.2523 7.85867 35.9856 7.672 35.6763 7.544C35.3669 7.40533 35.0256 7.336 34.6523 7.336C34.2256 7.336 33.8363 7.432 33.4843 7.624C33.1429 7.816 32.8709 8.088 32.6683 8.44C32.4656 8.78133 32.3643 9.176 32.3643 9.624ZM42.3428 6.376L42.4708 7.992L42.4068 7.736C42.6201 7.24533 42.9668 6.856 43.4468 6.568C43.9268 6.26933 44.4814 6.12 45.1108 6.12C45.7401 6.12 46.2521 6.30667 46.6468 6.68C47.0521 7.04267 47.2601 7.51733 47.2708 8.104V13H45.7668V8.632C45.7561 8.26933 45.6494 7.976 45.4468 7.752C45.2548 7.51733 44.9508 7.4 44.5348 7.4C44.1508 7.4 43.8041 7.50667 43.4948 7.72C43.1854 7.93333 42.9401 8.22667 42.7588 8.6C42.5881 8.97333 42.5028 9.40533 42.5028 9.896V13H41.0148V6.376H42.3428ZM58.953 13.16C58.345 13.16 57.8063 13.0267 57.337 12.76C56.8783 12.4933 56.5103 12.1573 56.233 11.752L56.409 11.288V13H54.921V0.615999H56.393V7.896L56.345 7.336C56.6117 6.97333 56.9903 6.68 57.481 6.456C57.9823 6.22133 58.537 6.104 59.145 6.104C59.7423 6.104 60.2863 6.248 60.777 6.536C61.2677 6.824 61.657 7.22933 61.945 7.752C62.2437 8.264 62.393 8.87733 62.393 9.592C62.393 10.3387 62.233 10.9787 61.913 11.512C61.6037 12.0453 61.1877 12.456 60.665 12.744C60.1423 13.0213 59.5717 13.16 58.953 13.16ZM58.649 11.896C59.0757 11.896 59.4597 11.7947 59.801 11.592C60.1423 11.3893 60.409 11.1173 60.601 10.776C60.793 10.424 60.889 10.024 60.889 9.576C60.889 9.14933 60.7877 8.76533 60.585 8.424C60.393 8.072 60.1263 7.79467 59.785 7.592C59.4543 7.38933 59.0757 7.288 58.649 7.288C58.2863 7.288 57.9503 7.35733 57.641 7.496C57.3317 7.63467 57.0703 7.82667 56.857 8.072C56.6437 8.30667 56.4943 8.584 56.409 8.904V10.232C56.4943 10.552 56.6383 10.84 56.841 11.096C57.0437 11.3413 57.2997 11.5387 57.609 11.688C57.9183 11.8267 58.265 11.896 58.649 11.896ZM64.9654 16.184L69.3334 6.376H70.7094L66.4374 16.184H64.9654ZM66.5974 13.048L63.4134 6.376H65.0934L67.7654 12.296L66.5974 13.048ZM76.7341 1.496H78.5261L81.6621 10.328L81.3901 10.216L83.6781 4.296L84.3981 6.392L81.3421 13.528L76.7341 1.496ZM82.2861 1.496H83.8381L87.2301 10.2L86.9101 10.136L89.9021 1.496H91.5501L87.0061 13.512L82.2861 1.496ZM95.0868 13.16C94.3294 13.16 93.6788 13.0107 93.1348 12.712C92.5908 12.4027 92.1694 11.9867 91.8708 11.464C91.5828 10.9307 91.4388 10.3227 91.4388 9.64C91.4388 8.98933 91.6041 8.39733 91.9348 7.864C92.2654 7.33067 92.7081 6.904 93.2628 6.584C93.8174 6.264 94.4361 6.104 95.1188 6.104C95.9934 6.104 96.7188 6.36 97.2948 6.872C97.8708 7.384 98.2601 8.088 98.4628 8.984L93.0068 10.904L92.6548 10.024L97.1348 8.392L96.8148 8.6C96.6868 8.248 96.4734 7.944 96.1748 7.688C95.8761 7.42133 95.4868 7.288 95.0068 7.288C94.6014 7.288 94.2388 7.38933 93.9188 7.592C93.5988 7.784 93.3481 8.05067 93.1668 8.392C92.9854 8.73333 92.8948 9.12267 92.8948 9.56C92.8948 10.0187 92.9908 10.424 93.1828 10.776C93.3748 11.1173 93.6361 11.3893 93.9668 11.592C94.3081 11.784 94.6921 11.88 95.1188 11.88C95.4068 11.88 95.6841 11.8267 95.9508 11.72C96.2281 11.6133 96.4841 11.4747 96.7188 11.304L97.4068 12.408C97.0761 12.632 96.7028 12.8133 96.2868 12.952C95.8814 13.0907 95.4814 13.16 95.0868 13.16ZM104.359 13.16C103.751 13.16 103.213 13.0267 102.743 12.76C102.285 12.4933 101.917 12.1573 101.639 11.752L101.815 11.288V13H100.327V0.615999H101.799V7.896L101.751 7.336C102.018 6.97333 102.397 6.68 102.887 6.456C103.389 6.22133 103.943 6.104 104.551 6.104C105.149 6.104 105.693 6.248 106.183 6.536C106.674 6.824 107.063 7.22933 107.351 7.752C107.65 8.264 107.799 8.87733 107.799 9.592C107.799 10.3387 107.639 10.9787 107.319 11.512C107.01 12.0453 106.594 12.456 106.071 12.744C105.549 13.0213 104.978 13.16 104.359 13.16ZM104.055 11.896C104.482 11.896 104.866 11.7947 105.207 11.592C105.549 11.3893 105.815 11.1173 106.007 10.776C106.199 10.424 106.295 10.024 106.295 9.576C106.295 9.14933 106.194 8.76533 105.991 8.424C105.799 8.072 105.533 7.79467 105.191 7.592C104.861 7.38933 104.482 7.288 104.055 7.288C103.693 7.288 103.357 7.35733 103.047 7.496C102.738 7.63467 102.477 7.82667 102.263 8.072C102.05 8.30667 101.901 8.584 101.815 8.904V10.232C101.901 10.552 102.045 10.84 102.247 11.096C102.45 11.3413 102.706 11.5387 103.015 11.688C103.325 11.8267 103.671 11.896 104.055 11.896ZM113.156 1.432C114.318 1.432 115.23 1.672 115.892 2.152C116.564 2.62133 116.9 3.35733 116.9 4.36C116.9 4.968 116.761 5.496 116.484 5.944C116.206 6.392 115.817 6.744 115.316 7C114.825 7.256 114.244 7.4 113.572 7.432L113.348 6.632C114.126 6.65333 114.825 6.792 115.444 7.048C116.062 7.304 116.553 7.66133 116.916 8.12C117.278 8.57867 117.46 9.12267 117.46 9.752C117.46 10.328 117.353 10.824 117.14 11.24C116.926 11.6453 116.638 11.9813 116.276 12.248C115.913 12.504 115.502 12.696 115.044 12.824C114.585 12.9413 114.11 13 113.62 13H110.18V1.432H113.156ZM113.476 6.504C114.116 6.504 114.58 6.328 114.868 5.976C115.156 5.61333 115.3 5.176 115.3 4.664C115.3 4.056 115.113 3.61333 114.74 3.336C114.366 3.05867 113.865 2.92 113.236 2.92H111.732V6.504H113.476ZM113.54 11.56C113.966 11.56 114.356 11.496 114.708 11.368C115.07 11.24 115.353 11.0427 115.556 10.776C115.769 10.5093 115.876 10.1733 115.876 9.768C115.876 9.32 115.753 8.968 115.508 8.712C115.273 8.456 114.969 8.27467 114.596 8.168C114.222 8.05067 113.838 7.992 113.444 7.992H111.732V11.56H113.54ZM120.262 16.184L124.63 6.376H126.006L121.734 16.184H120.262ZM121.894 13.048L118.71 6.376H120.39L123.062 12.296L121.894 13.048ZM130.636 16.28C130.146 16.28 129.714 16.2213 129.34 16.104C128.967 15.9973 128.626 15.8427 128.316 15.64C128.018 15.4373 127.73 15.208 127.452 14.952L128.316 13.944C128.668 14.2747 129.026 14.5307 129.388 14.712C129.751 14.8933 130.156 14.984 130.604 14.984C131.106 14.984 131.527 14.8987 131.868 14.728C132.22 14.568 132.487 14.3387 132.668 14.04C132.85 13.752 132.94 13.416 132.94 13.032L132.956 11.24L133.084 11.528C132.892 11.9867 132.546 12.376 132.044 12.696C131.543 13.0053 130.935 13.16 130.22 13.16C129.612 13.16 129.052 13.0053 128.54 12.696C128.039 12.3867 127.634 11.9707 127.324 11.448C127.026 10.9147 126.876 10.3173 126.876 9.656C126.876 8.96267 127.036 8.35467 127.356 7.832C127.676 7.29867 128.098 6.87733 128.62 6.568C129.143 6.25867 129.714 6.104 130.332 6.104C130.919 6.104 131.452 6.22667 131.932 6.472C132.423 6.70667 132.78 7.01067 133.004 7.384L132.924 7.656L133.084 6.376H134.444V13.048C134.444 13.6453 134.29 14.1893 133.98 14.68C133.671 15.1707 133.234 15.56 132.668 15.848C132.103 16.136 131.426 16.28 130.636 16.28ZM128.364 9.624C128.364 10.0507 128.466 10.44 128.668 10.792C128.871 11.144 129.143 11.4213 129.484 11.624C129.836 11.8267 130.226 11.928 130.652 11.928C131.047 11.928 131.399 11.8587 131.708 11.72C132.028 11.5707 132.295 11.3733 132.508 11.128C132.722 10.872 132.871 10.5787 132.956 10.248V8.936C132.86 8.616 132.7 8.33867 132.476 8.104C132.252 7.85867 131.986 7.672 131.676 7.544C131.367 7.40533 131.026 7.336 130.652 7.336C130.226 7.336 129.836 7.432 129.484 7.624C129.143 7.816 128.871 8.088 128.668 8.44C128.466 8.78133 128.364 9.176 128.364 9.624ZM137.015 6.376H138.503V13H137.015V6.376ZM136.903 3.976C136.903 3.74133 136.993 3.544 137.175 3.384C137.367 3.224 137.575 3.144 137.799 3.144C138.023 3.144 138.22 3.224 138.391 3.384C138.572 3.544 138.663 3.74133 138.663 3.976C138.663 4.22133 138.572 4.424 138.391 4.584C138.22 4.73333 138.023 4.808 137.799 4.808C137.575 4.808 137.367 4.728 137.175 4.568C136.993 4.408 136.903 4.21067 136.903 3.976Z" fill="white"/>
</svg>
