<svg width="36" height="39" viewBox="0 0 36 39" fill="none" xmlns="http://www.w3.org/2000/svg">
<path d="M18.008 9.84184C12.8972 9.84184 8.77492 14.1502 8.77492 19.4916C8.77492 24.833 12.8972 29.1415 18.008 29.1415C23.1187 29.1415 27.2411 24.833 27.2411 19.4916C27.2411 14.1502 23.1187 9.84184 18.008 9.84184ZM18.008 25.7653C14.7053 25.7653 12.0053 22.9518 12.0053 19.4916C12.0053 16.0314 14.6972 13.218 18.008 13.218C21.3187 13.218 24.0106 16.0314 24.0106 19.4916C24.0106 22.9518 21.3106 25.7653 18.008 25.7653ZM29.7722 9.44712C29.7722 10.6985 28.808 11.6979 27.6187 11.6979C26.4214 11.6979 25.4652 10.6901 25.4652 9.44712C25.4652 8.20415 26.4293 7.19633 27.6187 7.19633C28.808 7.19633 29.7722 8.20415 29.7722 9.44712ZM35.8875 11.7315C35.7508 8.71645 35.0919 6.04575 32.9785 3.84536C30.8731 1.64497 28.3178 0.956304 25.4329 0.805126C22.4598 0.62876 13.5481 0.62876 10.5749 0.805126C7.69814 0.947903 5.14278 1.63656 3.0294 3.83696C0.915995 6.03735 0.265102 8.70806 0.120459 11.7231C-0.048291 14.8306 -0.048291 24.1444 0.120459 27.2518C0.257066 30.2669 0.915995 32.9375 3.0294 35.138C5.14278 37.3383 7.6901 38.0271 10.5749 38.1782C13.5481 38.3545 22.4598 38.3545 25.4329 38.1782C28.3178 38.0354 30.8731 37.3467 32.9785 35.138C35.0839 32.9375 35.7428 30.2669 35.8875 27.2518C36.0562 24.1444 36.0562 14.8388 35.8875 11.7315ZM32.0463 30.5859C31.4196 32.232 30.2062 33.5002 28.6231 34.1637C26.2526 35.1464 20.6275 34.9195 18.008 34.9195C15.3883 34.9195 9.75528 35.138 7.39278 34.1637C5.81778 33.5086 4.6044 32.2404 3.96956 30.5859C3.02939 28.1085 3.24635 22.2295 3.24635 19.4916C3.24635 16.7538 3.03742 10.8664 3.96956 8.39732C4.59635 6.75122 5.80974 5.48306 7.39278 4.81957C9.76332 3.83696 15.3883 4.06372 18.008 4.06372C20.6275 4.06372 26.2606 3.84536 28.6231 4.81957C30.1981 5.47466 31.4116 6.74281 32.0463 8.39732C32.9865 10.8749 32.7696 16.7538 32.7696 19.4916C32.7696 22.2295 32.9865 28.1169 32.0463 30.5859Z" fill="white"/>
</svg>
